<svg xmlns="http://www.w3.org/2000/svg" xmlns:xlink="http://www.w3.org/1999/xlink" width="500" zoomAndPan="magnify" viewBox="0 0 375 374.999991" height="500" preserveAspectRatio="xMidYMid meet" version="1.0"><defs><clipPath id="56793dc7b7"><path d="M 11.242188 85 L 363.742188 85 L 363.742188 371 L 11.242188 371 Z M 11.242188 85 " clip-rule="nonzero"/></clipPath></defs><path fill="#ffa54d" d="M 237.183594 335.769531 C 237.492188 338.324219 237.757812 341.042969 236.628906 343.363281 C 234.496094 347.796875 228.675781 348.632812 223.761719 348.890625 C 187.855469 350.753906 151.152344 352.527344 116.648438 342.453125 C 112.359375 341.199219 108.039062 339.726562 104.550781 336.941406 C 101.0625 334.160156 98.507812 329.824219 98.953125 325.386719 C 99.636719 318.523438 106.976562 313.304688 106.4375 306.429688 C 105.929688 300.066406 98.355469 296.167969 92.023438 297.195312 C 85.695312 298.222656 80.488281 302.59375 75.675781 306.792969 C 62.25 272.109375 59.988281 234.105469 61.269531 196.949219 C 61.84375 180.636719 63.085938 164.164062 68.054688 148.609375 C 73.023438 133.050781 81.996094 118.34375 95.449219 109.125 L 104.023438 104.09375 C 119.632812 99.183594 135.527344 95.519531 151.710938 93.097656 C 167.894531 90.679688 184.164062 89.535156 200.527344 89.667969 C 207.300781 89.730469 214.152344 90.03125 220.652344 92.023438 C 240.828125 98.203125 252.496094 118.707031 262.171875 137.480469 C 265.066406 142.863281 267.644531 148.394531 269.910156 154.074219 C 252.257812 147.753906 234.132812 143.4375 215.53125 141.125 C 198.511719 139.027344 180.109375 138.953125 165.628906 148.21875 C 152.207031 156.828125 144.613281 171.972656 138.527344 186.738281 C 128.429688 211.285156 120.699219 237.132812 119.636719 263.644531 C 119.261719 273.082031 120.378906 283.867188 127.910156 289.558594 C 132.515625 293.039062 138.5625 293.792969 144.304688 294.328125 C 173.929688 297.074219 203.53125 296.875 233.117188 293.730469 C 232.734375 307.695312 235.449219 321.796875 237.183594 335.769531 Z M 237.183594 335.769531 " fill-opacity="1" fill-rule="nonzero"/><path fill="#ffa54d" d="M 237.019531 335.769531 C 237.609375 340.761719 236.902344 345.335938 231.726562 347.34375 C 228.203125 348.714844 224.285156 348.707031 220.570312 348.898438 C 211.089844 349.378906 201.605469 349.808594 192.117188 350.042969 C 173.132812 350.472656 154.023438 349.925781 135.285156 346.617188 C 130.84375 345.824219 126.4375 344.890625 122.070312 343.769531 C 117.703125 342.652344 112.988281 341.453125 108.78125 339.398438 C 104.785156 337.425781 101.171875 334.324219 99.699219 329.996094 C 98.292969 325.886719 99.699219 322.085938 101.761719 318.523438 C 104.566406 313.730469 108.792969 308.078125 105.292969 302.484375 C 102.296875 297.722656 95.867188 296.046875 90.625 297.3125 C 86.824219 298.378906 83.402344 300.167969 80.351562 302.675781 C 79.15625 303.585938 77.890625 305.105469 76.558594 305.777344 C 75.777344 306.175781 75.902344 306.402344 75.359375 305.660156 C 75.113281 305.195312 74.933594 304.707031 74.8125 304.195312 C 74.367188 302.976562 73.90625 301.757812 73.503906 300.558594 C 70.570312 291.96875 68.210938 283.222656 66.429688 274.320312 C 62.796875 256.082031 61.324219 237.445312 61.125 218.859375 C 60.925781 200.277344 61.1875 181.039062 64.683594 162.644531 C 67.835938 146.027344 74.324219 129.597656 86.167969 117.234375 C 90.160156 113.140625 94.644531 109.683594 99.617188 106.859375 C 101.054688 105.914062 102.535156 105.042969 104.058594 104.25 C 106.1875 103.445312 108.363281 102.785156 110.582031 102.277344 C 113.003906 101.566406 115.453125 100.890625 117.929688 100.242188 C 136.34375 95.375 155.050781 92.21875 174.042969 90.765625 C 183.371094 90.058594 192.734375 89.75 202.078125 89.859375 C 211.007812 89.996094 219.871094 90.96875 227.875 95.195312 C 241.226562 102.25 250.007812 115.523438 257.148438 128.386719 C 261.519531 135.996094 265.425781 143.832031 268.875 151.898438 C 269.335938 153.019531 269.972656 153.71875 268.4375 153.382812 C 267.410156 153.089844 266.402344 152.746094 265.414062 152.34375 C 263.132812 151.574219 260.871094 150.84375 258.546875 150.136719 C 253.964844 148.734375 249.335938 147.464844 244.660156 146.316406 C 235.828125 144.160156 226.910156 142.480469 217.902344 141.28125 C 209.667969 140.046875 201.394531 139.609375 193.078125 139.972656 C 185.394531 140.300781 178.035156 142.019531 171 145.125 C 167.53125 146.789062 164.304688 148.828125 161.3125 151.242188 C 158.324219 153.660156 155.652344 156.386719 153.296875 159.425781 C 143.304688 171.992188 137.484375 187.9375 132.1875 202.929688 C 126.15625 220.015625 121.625 237.726562 120.015625 255.808594 C 118.882812 268.628906 118.046875 286.828125 132.734375 292.3125 C 136.511719 293.558594 140.386719 294.289062 144.359375 294.503906 C 149.054688 294.949219 153.75 295.304688 158.457031 295.59375 C 168.277344 296.199219 178.105469 296.472656 187.945312 296.410156 C 197.636719 296.371094 207.324219 296.007812 217.011719 295.332031 C 219.363281 295.167969 221.707031 294.984375 224.058594 294.785156 C 226.414062 294.585938 229.101562 293.957031 231.507812 294.074219 C 232.125 294.074219 232.617188 293.882812 232.980469 294.566406 C 233.089844 295.25 233.089844 295.9375 232.980469 296.621094 C 232.980469 297.722656 232.980469 298.8125 233.035156 299.914062 C 233.105469 302.523438 233.277344 305.132812 233.503906 307.742188 C 234.324219 317.121094 235.894531 326.421875 237.066406 335.769531 C 237.066406 335.96875 237.410156 335.96875 237.382812 335.769531 C 235.632812 321.804688 232.996094 307.875 233.332031 293.75 C 233.328125 293.644531 233.273438 293.589844 233.167969 293.585938 C 206.921875 296.367188 180.632812 296.839844 154.304688 295.003906 C 143.234375 294.222656 128.78125 294.675781 122.949219 283.183594 C 118.09375 273.636719 119.644531 261.300781 120.835938 251.082031 C 123.695312 226.585938 131.507812 202.441406 141.625 180.027344 C 145.984375 170.390625 151.289062 160.875 159.074219 153.574219 C 167.484375 145.691406 178.328125 141.753906 189.664062 140.554688 C 202.761719 139.207031 216.101562 141 228.984375 143.28125 C 242.933594 145.78125 256.582031 149.417969 269.925781 154.191406 C 269.988281 154.210938 270.039062 154.195312 270.085938 154.148438 C 270.128906 154.105469 270.140625 154.050781 270.117188 153.992188 C 267.425781 147.351562 264.363281 140.886719 260.925781 134.597656 C 258.027344 129.0625 255.015625 123.589844 251.609375 118.351562 C 245.332031 108.695312 237.511719 99.503906 227.019531 94.339844 C 214.304688 88.085938 199.046875 89.167969 185.332031 89.722656 C 169.90625 90.335938 154.609375 92.085938 139.445312 94.96875 C 131.816406 96.421875 124.246094 98.152344 116.738281 100.160156 C 111.6875 101.523438 106.292969 102.53125 101.753906 105.1875 C 98.601562 106.890625 95.574219 108.785156 92.667969 110.878906 C 87.894531 114.625 83.722656 118.957031 80.152344 123.871094 C 62.75 147.644531 61.296875 178.65625 60.863281 207.03125 C 60.398438 237.035156 62.679688 267.417969 71.761719 296.128906 C 72.894531 299.765625 74.148438 303.265625 75.492188 306.777344 C 75.511719 306.832031 75.550781 306.867188 75.605469 306.882812 C 75.664062 306.898438 75.714844 306.886719 75.757812 306.847656 C 81.125 302.210938 87.65625 296.558594 95.265625 297.183594 C 102.042969 297.738281 108.101562 303.304688 105.730469 310.441406 C 103.914062 315.832031 98.980469 320.03125 98.765625 325.96875 C 98.535156 332.179688 103.449219 337.050781 108.628906 339.605469 C 115.238281 342.878906 122.960938 344.40625 130.136719 345.890625 C 137.941406 347.46875 145.816406 348.601562 153.75 349.289062 C 170.097656 350.753906 186.546875 350.597656 202.941406 349.960938 C 207.484375 349.792969 212.023438 349.589844 216.566406 349.351562 C 220.347656 349.292969 224.117188 349.039062 227.875 348.589844 C 230.707031 348.144531 233.742188 347.253906 235.6875 345.007812 C 237.957031 342.40625 237.71875 338.914062 237.339844 335.707031 C 237.320312 335.570312 237.003906 335.5625 237.019531 335.769531 Z M 237.019531 335.769531 " fill-opacity="1" fill-rule="nonzero"/><path fill="#ffa54d" d="M 224.6875 97.632812 C 235.070312 97.058594 245.363281 97.773438 255.566406 99.769531 C 272.234375 103.023438 289.027344 110.367188 298.8125 124.25 C 305.605469 133.878906 308.394531 145.71875 310.410156 157.335938 C 312.28125 168.140625 313.609375 179.007812 314.390625 189.945312 C 315.171875 200.882812 315.40625 211.832031 315.089844 222.789062 C 314.777344 233.75 313.914062 244.667969 312.503906 255.539062 C 311.097656 266.414062 309.148438 277.1875 306.65625 287.867188 C 304.53125 296.957031 301.945312 306.105469 296.8125 313.878906 C 287.410156 328.085938 271 335.695312 255.421875 342.578125 L 254.933594 333.324219 C 254.859375 331.878906 254.8125 330.316406 255.667969 329.140625 C 256.519531 327.96875 257.828125 327.570312 259.039062 326.96875 C 265.449219 323.785156 268.183594 314.6875 264.289062 308.675781 C 260.390625 302.667969 250.5625 301.667969 245.777344 306.984375 C 240.988281 312.304688 243.378906 322.324219 250.164062 324.597656 C 252.578125 325.40625 255.332031 325.359375 257.429688 326.816406 C 260.519531 328.953125 260.828125 333.707031 258.945312 336.960938 C 257.066406 340.214844 253.605469 342.226562 250.136719 343.660156 C 245.585938 345.542969 240.855469 346.695312 235.949219 347.117188 C 234.132812 347.269531 232.023438 347.253906 230.644531 346.007812 C 229.695312 344.964844 229.089844 343.753906 228.828125 342.371094 L 224.722656 328.042969 C 223.488281 323.742188 222.242188 319.359375 222.34375 314.886719 C 222.480469 308.523438 225.269531 302.640625 228.230469 297.058594 C 240.117188 274.664062 255.757812 254.328125 265.921875 231.070312 C 276.085938 207.8125 280.144531 180.011719 268.257812 157.628906 C 262.988281 147.753906 255.023438 139.671875 247.175781 131.679688 L 219.328125 103.433594 " fill-opacity="1" fill-rule="nonzero"/><path fill="#ffa54d" d="M 224.6875 97.785156 C 237.972656 97 251.035156 98.367188 263.871094 101.894531 C 274.769531 104.996094 285.433594 110.078125 293.523438 118.179688 C 302.308594 126.96875 306.503906 138.679688 309.011719 150.617188 C 311.71875 163.941406 313.492188 177.386719 314.332031 190.957031 C 316.195312 218.316406 314.65625 245.480469 309.71875 272.457031 C 307.421875 284.976562 305.085938 298.359375 299.09375 309.730469 C 293.550781 320.242188 284.242188 327.707031 274.050781 333.433594 C 269.171875 336.160156 264.058594 338.570312 258.992188 340.863281 C 258.15625 341.242188 256.148438 342.617188 255.539062 341.769531 C 255.242188 341.363281 255.429688 339.769531 255.402344 339.234375 L 255.25 336.277344 C 255.097656 334.765625 255.035156 333.253906 255.066406 331.734375 C 255.230469 329.34375 256.628906 328.289062 258.59375 327.332031 C 265.550781 323.960938 268.945312 314.078125 263.789062 307.695312 C 259.039062 301.820312 248.164062 301.65625 244.378906 308.695312 C 243.976562 309.5 243.667969 310.335938 243.453125 311.210938 C 243.238281 312.082031 243.125 312.96875 243.109375 313.867188 C 243.09375 314.765625 243.179688 315.65625 243.363281 316.535156 C 243.550781 317.414062 243.828125 318.261719 244.207031 319.078125 C 245.902344 322.894531 248.984375 324.597656 252.925781 325.394531 C 256.113281 326.042969 258.945312 327.214844 259.765625 330.695312 C 259.910156 331.460938 259.960938 332.226562 259.914062 333.003906 C 259.863281 333.777344 259.722656 334.535156 259.484375 335.273438 C 259.246094 336.011719 258.917969 336.710938 258.503906 337.367188 C 258.09375 338.023438 257.601562 338.617188 257.039062 339.152344 C 252.496094 343.699219 245.09375 345.652344 238.957031 346.578125 C 237.332031 346.882812 235.695312 347.023438 234.042969 347 C 233.484375 346.988281 232.945312 346.890625 232.421875 346.703125 C 231.898438 346.515625 231.417969 346.25 230.980469 345.902344 C 230.546875 345.558594 230.175781 345.148438 229.875 344.683594 C 229.574219 344.214844 229.355469 343.710938 229.21875 343.171875 C 228.15625 340.023438 227.402344 336.75 226.492188 333.5625 C 224.632812 327.070312 221.953125 320.222656 222.605469 313.367188 C 223.261719 306.511719 226.601562 300.347656 229.828125 294.457031 C 232.933594 288.773438 236.257812 283.230469 239.644531 277.71875 C 246.285156 266.917969 253.1875 256.273438 259.21875 245.109375 C 270.21875 224.722656 278.292969 201.46875 274.949219 177.957031 C 274.101562 172.285156 272.527344 166.820312 270.226562 161.570312 C 267.921875 156.316406 264.976562 151.457031 261.378906 146.988281 C 253.207031 136.570312 243.214844 127.460938 233.949219 118.042969 L 219.417969 103.3125 C 219.34375 103.261719 219.273438 103.269531 219.210938 103.332031 C 219.148438 103.398438 219.140625 103.464844 219.191406 103.539062 C 230.390625 114.90625 241.78125 126.117188 252.796875 137.679688 C 262.789062 148.226562 271.042969 159.800781 273.96875 174.3125 C 279.699219 202.820312 267.476562 230.859375 253.289062 254.871094 C 245.792969 267.546875 237.601562 279.785156 230.4375 292.648438 C 227.09375 298.648438 223.460938 304.949219 222.433594 311.851562 C 221.363281 319.023438 223.96875 326.070312 225.921875 332.871094 C 226.957031 336.507812 227.738281 340.308594 229.109375 343.835938 C 229.253906 344.304688 229.464844 344.742188 229.742188 345.148438 C 230.019531 345.558594 230.351562 345.914062 230.734375 346.222656 C 231.117188 346.53125 231.539062 346.773438 231.996094 346.957031 C 232.453125 347.136719 232.925781 347.25 233.414062 347.289062 C 236.449219 347.644531 239.898438 346.863281 242.832031 346.171875 C 246.136719 345.429688 249.304688 344.308594 252.34375 342.816406 C 256.785156 340.597656 261.015625 336.597656 260.171875 331.167969 C 260.039062 330.160156 259.691406 329.230469 259.128906 328.378906 C 258.566406 327.53125 257.84375 326.847656 256.964844 326.332031 C 254.40625 324.886719 251.246094 325.207031 248.675781 323.742188 C 243.824219 321.015625 242.050781 313.984375 244.53125 309.085938 C 247.347656 303.523438 254.804688 302.414062 259.972656 305.078125 C 265.769531 308.050781 267.238281 315.140625 264.613281 320.796875 C 264.03125 322.089844 263.25 323.253906 262.277344 324.289062 C 261.304688 325.320312 260.1875 326.167969 258.929688 326.824219 C 256.882812 327.871094 255.09375 328.640625 254.777344 331.125 C 254.304688 334.804688 255.039062 338.90625 255.242188 342.605469 C 255.246094 342.664062 255.273438 342.710938 255.320312 342.738281 C 255.371094 342.769531 255.425781 342.769531 255.476562 342.742188 C 273.132812 334.925781 291.808594 326.015625 300.480469 307.585938 C 305.097656 297.730469 307.25 286.71875 309.320312 276.109375 C 311.535156 264.734375 313.144531 253.273438 314.140625 241.726562 C 316.203125 218.058594 315.703125 194.449219 312.632812 170.890625 C 310.007812 150.707031 306.75 128.453125 290.144531 114.707031 C 272.460938 100.058594 246.882812 96.3125 224.660156 97.429688 C 224.460938 97.429688 224.460938 97.769531 224.660156 97.75 Z M 224.6875 97.785156 " fill-opacity="1" fill-rule="nonzero"/><path fill="#ffffff" d="M 167.472656 159.5 C 156.96875 177.605469 148.191406 196.511719 141.140625 216.222656 C 134.089844 235.933594 128.882812 256.121094 125.523438 276.78125 C 124.820312 281.074219 124.476562 286.175781 127.738281 289.046875 C 129.335938 290.457031 131.488281 291.003906 133.558594 291.476562 C 145.074219 294.089844 156.722656 295.777344 168.503906 296.539062 C 180.285156 297.304688 192.050781 297.128906 203.804688 296.019531 C 208.257812 295.601562 212.761719 295.03125 216.902344 293.292969 C 222.234375 291.113281 226.683594 287.183594 230.480469 282.839844 C 243.90625 267.480469 249.890625 247.171875 255.496094 227.550781 L 270.316406 175.730469 C 272.40625 168.457031 274.042969 159.363281 268.445312 154.246094 C 265.984375 152 262.625 151.089844 259.363281 150.328125 C 234.367188 144.425781 208.59375 142.878906 182.960938 141.351562 C 180.300781 141.191406 177.511719 141.0625 175.121094 142.261719 C 173.097656 143.273438 171.632812 145.109375 170.246094 146.882812 L 159.464844 160.582031 " fill-opacity="1" fill-rule="nonzero"/><path fill="#ffffff" d="M 167.339844 159.417969 C 158.800781 174.148438 151.390625 189.429688 145.113281 205.261719 C 138.835938 221.089844 133.757812 237.296875 129.882812 253.882812 C 128.066406 261.816406 126.25 269.875 125.183594 277.957031 C 124.785156 280.875 124.585938 284.121094 125.902344 286.847656 C 127.21875 289.574219 130.027344 290.773438 132.898438 291.476562 C 150.359375 295.589844 168.058594 297.476562 185.996094 297.128906 C 194.46875 297.011719 203.324219 296.839844 211.644531 295.066406 C 219.136719 293.476562 225.132812 289.128906 230.171875 283.492188 C 240.464844 271.964844 246.519531 257.425781 251.136719 242.871094 C 256.585938 225.796875 261.179688 208.40625 266.105469 191.15625 C 268.285156 183.53125 271.234375 175.746094 272.226562 167.847656 C 272.988281 161.71875 271.78125 155.300781 265.867188 152.261719 C 262.445312 150.519531 258.417969 149.890625 254.695312 149.097656 C 250.300781 148.191406 245.867188 147.34375 241.425781 146.625 C 232.652344 145.21875 223.816406 144.207031 214.960938 143.417969 C 205.703125 142.589844 196.421875 142 187.136719 141.433594 C 183.503906 141.21875 179.300781 140.433594 175.8125 141.808594 C 172.324219 143.179688 170.117188 146.882812 167.902344 149.699219 L 159.417969 160.507812 C 159.292969 160.664062 159.519531 160.890625 159.644531 160.726562 L 167.828125 150.253906 C 170.316406 147.089844 172.761719 142.890625 176.910156 141.789062 C 180.863281 140.734375 185.550781 141.652344 189.5625 141.898438 C 193.933594 142.171875 198.300781 142.445312 202.671875 142.753906 C 219.925781 143.980469 237.230469 145.726562 254.1875 149.316406 C 258 150.125 262.171875 150.761719 265.675781 152.546875 C 266.507812 152.964844 267.28125 153.480469 267.988281 154.089844 C 268.695312 154.699219 269.320312 155.382812 269.863281 156.140625 C 270.40625 156.902344 270.851562 157.714844 271.195312 158.582031 C 271.542969 159.453125 271.777344 160.347656 271.90625 161.273438 C 273.125 168.648438 269.992188 176.417969 268.003906 183.375 C 263.277344 199.902344 258.628906 216.449219 253.816406 232.953125 C 249.636719 247.308594 244.949219 261.828125 236.695312 274.417969 C 232.589844 280.691406 227.546875 286.9375 221.136719 290.964844 C 213.941406 295.511719 205.195312 295.867188 196.957031 296.421875 C 179.730469 297.503906 162.609375 296.597656 145.59375 293.695312 C 141.378906 292.976562 137.164062 292.183594 133.015625 291.175781 C 128.636719 290.121094 125.75 287.820312 125.3125 283.148438 C 124.96875 279.511719 125.847656 275.875 126.476562 272.300781 C 127.183594 268.289062 127.960938 264.292969 128.808594 260.308594 C 132.175781 244.542969 136.628906 229.09375 142.167969 213.953125 C 147.707031 198.816406 154.277344 184.140625 161.878906 169.929688 C 163.746094 166.441406 165.667969 162.996094 167.648438 159.589844 C 167.671875 159.507812 167.648438 159.445312 167.574219 159.402344 C 167.5 159.359375 167.433594 159.367188 167.375 159.425781 Z M 167.339844 159.417969 " fill-opacity="1" fill-rule="nonzero"/><path fill="#ff4e32" d="M 251.152344 304.457031 C 247.457031 305.421875 245.605469 309.511719 244.613281 313.203125 C 243.625 316.894531 243.195312 321.496094 246.066406 324.070312 C 247.882812 325.667969 250.410156 325.996094 252.796875 326.097656 C 254.148438 326.222656 255.46875 326.085938 256.765625 325.695312 C 260.589844 324.296875 261.707031 319.523438 262.261719 315.496094 C 262.574219 314.195312 262.488281 312.921875 262 311.675781 C 261.539062 310.902344 260.914062 310.296875 260.128906 309.859375 C 258.058594 308.554688 255.804688 307.933594 253.359375 307.996094 " fill-opacity="1" fill-rule="nonzero"/><path fill="#ff4e32" d="M 250.980469 303.839844 C 245.8125 305.441406 243.777344 311.839844 243.304688 316.703125 C 243.070312 319.105469 243.304688 321.722656 244.851562 323.6875 C 246.613281 325.933594 249.445312 326.515625 252.117188 326.695312 C 254.785156 326.878906 257.421875 326.695312 259.382812 324.714844 C 261.199219 322.894531 261.972656 320.332031 262.453125 317.914062 C 262.933594 315.496094 263.632812 312.6875 262.042969 310.640625 C 260.089844 308.175781 256.277344 307.332031 253.316406 307.3125 C 253.140625 307.3125 252.992188 307.375 252.867188 307.5 C 252.746094 307.625 252.683594 307.773438 252.683594 307.949219 C 252.683594 308.125 252.746094 308.273438 252.867188 308.398438 C 252.992188 308.523438 253.140625 308.585938 253.316406 308.585938 C 255.949219 308.585938 259.617188 309.320312 261.136719 311.730469 C 262.34375 313.632812 261.5 316.578125 260.980469 318.667969 C 260.59375 320.703125 259.6875 322.464844 258.257812 323.960938 C 256.441406 325.667969 253.761719 325.558594 251.398438 325.339844 C 249.039062 325.125 246.414062 324.304688 245.1875 321.949219 C 244.152344 319.96875 244.277344 317.476562 244.6875 315.351562 C 245.386719 311.414062 247.011719 306.339844 251.246094 305.03125 C 251.414062 304.984375 251.539062 304.882812 251.625 304.730469 C 251.710938 304.574219 251.730469 304.414062 251.683594 304.246094 C 251.636719 304.074219 251.535156 303.949219 251.382812 303.863281 C 251.230469 303.777344 251.066406 303.757812 250.898438 303.804688 Z M 250.980469 303.839844 " fill-opacity="1" fill-rule="nonzero"/><path fill="#ff4e32" d="M 33.230469 201.792969 C 32.519531 223.21875 34.746094 244.332031 39.90625 265.136719 C 40.980469 269.546875 42.261719 274.101562 45.257812 277.511719 C 48.253906 280.917969 53.433594 282.828125 57.445312 280.71875 C 63.070312 277.773438 62.949219 269.808594 62.050781 263.519531 C 57.820312 233.660156 54.105469 202.847656 61.761719 173.683594 C 60.683594 173.421875 59.59375 173.234375 58.488281 173.121094 C 57.386719 173.007812 56.28125 172.972656 55.171875 173.015625 C 54.0625 173.058594 52.964844 173.175781 51.871094 173.371094 C 50.78125 173.566406 49.707031 173.835938 48.652344 174.179688 C 47.597656 174.523438 46.570312 174.9375 45.574219 175.425781 C 44.578125 175.910156 43.617188 176.464844 42.699219 177.082031 C 41.777344 177.703125 40.90625 178.382812 40.078125 179.125 C 39.253906 179.867188 38.484375 180.660156 37.765625 181.507812 C 37.050781 182.355469 36.398438 183.25 35.804688 184.1875 C 35.214844 185.128906 34.6875 186.101562 34.234375 187.113281 C 33.777344 188.125 33.390625 189.164062 33.078125 190.230469 C 32.765625 191.292969 32.527344 192.375 32.367188 193.476562 C 32.203125 194.574219 32.117188 195.675781 32.109375 196.789062 C 32.097656 197.898438 32.164062 199.003906 32.308594 200.105469 C 32.453125 201.203125 32.671875 202.289062 32.96875 203.359375 C 33.261719 204.429688 33.628906 205.476562 34.066406 206.496094 " fill-opacity="1" fill-rule="nonzero"/><path fill="#ff4e32" d="M 32.597656 201.792969 C 32.09375 216.496094 33 231.109375 35.320312 245.636719 C 36.4375 252.933594 37.917969 260.160156 39.761719 267.308594 C 41.125 272.445312 43.269531 277.945312 48.144531 280.691406 C 52.167969 282.964844 57.347656 282.820312 60.425781 279.054688 C 63.378906 275.417969 63.351562 270.136719 62.921875 265.738281 C 62.25 258.871094 61.035156 252.054688 60.199219 245.199219 C 59.289062 237.871094 58.617188 230.523438 58.226562 223.160156 C 57.320312 206.621094 58.144531 189.949219 62.304688 173.863281 C 62.351562 173.699219 62.328125 173.539062 62.246094 173.386719 C 62.160156 173.234375 62.035156 173.132812 61.871094 173.082031 C 60.765625 172.832031 59.648438 172.652344 58.519531 172.550781 C 57.390625 172.449219 56.261719 172.421875 55.128906 172.472656 C 53.996094 172.523438 52.875 172.652344 51.757812 172.851562 C 50.644531 173.054688 49.546875 173.332031 48.46875 173.679688 C 47.390625 174.03125 46.339844 174.449219 45.320312 174.941406 C 44.296875 175.433594 43.3125 175.992188 42.367188 176.613281 C 41.421875 177.238281 40.519531 177.921875 39.667969 178.667969 C 38.8125 179.414062 38.011719 180.210938 37.265625 181.066406 C 36.542969 181.941406 35.886719 182.859375 35.289062 183.824219 C 34.691406 184.789062 34.164062 185.789062 33.703125 186.824219 C 33.238281 187.863281 32.847656 188.921875 32.53125 190.011719 C 32.210938 191.101562 31.96875 192.207031 31.796875 193.328125 C 31.628906 194.449219 31.535156 195.578125 31.519531 196.710938 C 31.5 197.84375 31.558594 198.976562 31.695312 200.101562 C 31.828125 201.226562 32.039062 202.339844 32.324219 203.4375 C 32.609375 204.535156 32.964844 205.609375 33.394531 206.660156 C 33.695312 207.40625 34.929688 207.078125 34.613281 206.324219 C 34.199219 205.328125 33.855469 204.308594 33.578125 203.265625 C 33.304688 202.222656 33.097656 201.167969 32.964844 200.097656 C 32.832031 199.027344 32.769531 197.953125 32.78125 196.875 C 32.792969 195.796875 32.875 194.722656 33.03125 193.65625 C 33.183594 192.589844 33.410156 191.535156 33.707031 190.5 C 34.003906 189.464844 34.371094 188.449219 34.800781 187.464844 C 35.234375 186.476562 35.734375 185.523438 36.292969 184.601562 C 36.855469 183.679688 37.476562 182.800781 38.15625 181.964844 C 38.863281 181.148438 39.621094 180.386719 40.433594 179.671875 C 41.242188 178.960938 42.097656 178.304688 42.996094 177.707031 C 43.898438 177.109375 44.832031 176.574219 45.804688 176.105469 C 46.773438 175.632812 47.773438 175.230469 48.800781 174.894531 C 49.824219 174.558594 50.871094 174.296875 51.929688 174.101562 C 52.992188 173.90625 54.0625 173.785156 55.140625 173.734375 C 56.21875 173.6875 57.296875 173.710938 58.371094 173.804688 C 59.445312 173.902344 60.507812 174.070312 61.5625 174.3125 L 61.125 173.527344 C 54.402344 199.476562 56.457031 226.515625 59.917969 252.789062 C 60.660156 258.472656 61.980469 264.28125 61.84375 270.0625 C 61.722656 275.375 59.328125 281.539062 52.941406 280.972656 C 46.339844 280.402344 43.003906 273.984375 41.359375 268.328125 C 39.597656 261.953125 38.191406 255.5 37.136719 248.972656 C 34.394531 233.375 33.296875 217.660156 33.839844 201.832031 C 33.839844 201.011719 32.605469 201.011719 32.570312 201.832031 Z M 32.597656 201.792969 " fill-opacity="1" fill-rule="nonzero"/><path fill="#ff4e32" d="M 32.558594 201.941406 L 22.742188 206.722656 C 21.273438 207.304688 20.007812 208.179688 18.945312 209.351562 C 17.601562 211.078125 17.5 213.449219 17.554688 215.640625 C 17.929688 229.132812 22.195312 242.179688 26.421875 255 C 26.65625 256.144531 27.21875 257.097656 28.101562 257.863281 C 28.871094 258.339844 29.699219 258.496094 30.589844 258.328125 C 33.1875 257.945312 35.183594 255.597656 35.976562 253.136719 C 36.765625 250.671875 36.59375 247.925781 36.375 245.308594 C 35.601562 235.367188 34.21875 225.511719 32.222656 215.742188 C 31.125 210.441406 29.824219 204.832031 31.761719 199.757812 " fill-opacity="1" fill-rule="nonzero"/><path fill="#ff4e32" d="M 32.242188 201.386719 L 25.4375 204.703125 C 23.460938 205.667969 21.1875 206.523438 19.488281 207.914062 C 16.609375 210.324219 16.820312 214.222656 17.054688 217.625 C 17.574219 227.070312 19.90625 236.308594 22.679688 245.316406 C 23.386719 247.597656 24.113281 249.871094 24.859375 252.144531 C 25.410156 253.835938 25.765625 255.898438 26.828125 257.371094 C 28.582031 259.855469 31.996094 259.089844 34.011719 257.371094 C 36.917969 254.855469 37.375 250.898438 37.191406 247.273438 C 36.9375 242.199219 36.285156 237.117188 35.65625 232.089844 C 34.96875 226.824219 34.113281 221.578125 33.050781 216.367188 C 31.941406 210.914062 30.507812 205.339844 32.421875 199.914062 C 32.695312 199.140625 31.46875 198.8125 31.199219 199.578125 C 28.726562 206.585938 31.425781 214.203125 32.6875 221.1875 C 34.277344 229.683594 35.347656 238.246094 35.902344 246.871094 C 36.121094 250.625 35.519531 257.21875 30.515625 257.652344 C 27.457031 257.925781 27.054688 254.800781 26.328125 252.582031 C 25.664062 250.5625 25.011719 248.542969 24.375 246.515625 C 21.785156 238.769531 19.917969 230.851562 18.773438 222.761719 C 18.292969 218.761719 16.820312 211.921875 20.324219 208.949219 C 21.96875 207.550781 24.203125 206.757812 26.128906 205.8125 L 32.921875 202.503906 C 33.660156 202.140625 33.015625 201.050781 32.289062 201.402344 Z M 32.242188 201.386719 " fill-opacity="1" fill-rule="nonzero"/><path fill="#ff4e32" d="M 313.152344 173.183594 C 315.957031 206.726562 315.621094 240.238281 312.144531 273.71875 C 311.933594 275.71875 311.953125 278.203125 313.714844 279.175781 C 314.367188 279.476562 315.050781 279.617188 315.769531 279.59375 C 317.171875 279.597656 318.550781 279.417969 319.90625 279.058594 C 321.261719 278.699219 322.546875 278.167969 323.765625 277.46875 C 324.980469 276.769531 326.085938 275.925781 327.082031 274.933594 C 328.074219 273.945312 328.925781 272.84375 329.628906 271.628906 C 332.589844 266.382812 333.261719 258.734375 338.964844 256.816406 C 341.207031 256.0625 343.734375 256.5 345.949219 255.636719 C 349.945312 254.082031 351.261719 249.191406 352.054688 244.972656 L 356.203125 222.75 C 357.347656 216.625 357.910156 208.996094 352.753906 205.476562 C 350.9375 204.230469 348.628906 203.785156 346.75 202.59375 C 339.101562 197.710938 342.796875 184.710938 336.59375 178.09375 C 330.945312 172.066406 320.363281 174.554688 313.679688 169.710938 " fill-opacity="1" fill-rule="nonzero"/><path fill="#ff4e32" d="M 312.5 173.183594 C 314.367188 195.601562 314.835938 218.046875 313.90625 240.527344 C 313.441406 251.625 312.453125 262.65625 311.488281 273.71875 C 311.199219 277.019531 311.898438 280.082031 315.75 280.203125 C 317.609375 280.21875 319.417969 279.925781 321.175781 279.320312 C 322.933594 278.71875 324.542969 277.84375 326.003906 276.691406 C 329.082031 274.300781 330.753906 271.082031 332.125 267.519531 C 333.441406 264.109375 334.625 259.726562 338.085938 257.863281 C 340.15625 256.753906 342.507812 257.0625 344.742188 256.609375 C 345.648438 256.429688 346.496094 256.101562 347.289062 255.628906 C 348.078125 255.152344 348.765625 254.554688 349.347656 253.835938 C 351.699219 250.953125 352.289062 247.015625 352.980469 243.472656 L 356.058594 227.015625 C 356.820312 222.914062 357.777344 218.761719 357.59375 214.558594 C 357.457031 211.324219 356.585938 207.949219 354.089844 205.714844 C 351.046875 202.984375 346.660156 202.984375 344.332031 199.230469 C 340.265625 192.738281 342.515625 183.773438 337.210938 177.839844 C 331.316406 171.253906 320.925781 173.957031 314.015625 169.175781 C 313.332031 168.699219 312.699219 169.800781 313.371094 170.265625 C 319.390625 174.429688 327.25 172.992188 333.480469 176.484375 C 339.929688 180.121094 339.683594 188.167969 341.179688 194.496094 C 341.808594 197.167969 342.796875 199.875 344.816406 201.839844 C 347.648438 204.632812 352.199219 204.675781 354.523438 208.085938 C 356.59375 211.121094 356.558594 215.179688 356.203125 218.6875 C 355.703125 223.578125 354.53125 228.433594 353.632812 233.234375 C 352.769531 237.78125 352.097656 242.472656 351.007812 247 C 350.628906 248.824219 349.96875 250.542969 349.027344 252.152344 C 347.464844 254.597656 345.296875 255.316406 342.507812 255.589844 C 339.246094 255.898438 336.613281 256.625 334.585938 259.363281 C 332.699219 261.898438 331.816406 265.035156 330.65625 267.9375 C 329.082031 271.875 326.765625 275.15625 322.933594 277.164062 C 320.996094 278.195312 318.929688 278.769531 316.738281 278.890625 C 315.125 278.964844 313.378906 278.683594 312.898438 276.902344 C 312.683594 275.835938 312.652344 274.765625 312.808594 273.691406 C 313.714844 263.453125 314.625 253.253906 315.113281 242.988281 C 316.1875 219.683594 315.757812 196.40625 313.824219 173.15625 C 313.761719 172.347656 312.488281 172.335938 312.550781 173.15625 Z M 312.5 173.183594 " fill-opacity="1" fill-rule="nonzero"/><path fill="#ffd02e" d="M 98.101562 298.777344 C 102.542969 300.667969 104.359375 306.210938 103.832031 311.011719 C 103.304688 315.8125 101.007812 320.203125 99.453125 324.777344 C 97.902344 329.351562 97.148438 334.632812 99.546875 338.824219 C 103.070312 344.988281 111.425781 345.972656 118.527344 345.953125 C 125.628906 345.933594 133.804688 346.105469 138.253906 351.644531 C 130.78125 361.300781 117.691406 366.144531 105.675781 364 C 104.179688 363.707031 102.703125 363.324219 101.253906 362.84375 C 99.804688 362.367188 98.390625 361.800781 97.015625 361.144531 C 95.636719 360.492188 94.304688 359.753906 93.019531 358.929688 C 91.730469 358.105469 90.503906 357.207031 89.328125 356.230469 C 88.15625 355.253906 87.050781 354.207031 86.007812 353.089844 C 84.964844 351.976562 84 350.796875 83.105469 349.558594 C 82.210938 348.324219 81.398438 347.035156 80.664062 345.695312 C 79.933594 344.355469 79.285156 342.972656 78.726562 341.550781 C 78.195312 340.121094 77.746094 338.664062 77.382812 337.183594 C 77.023438 335.699219 76.75 334.199219 76.5625 332.683594 C 76.378906 331.167969 76.28125 329.648438 76.273438 328.121094 C 76.269531 326.59375 76.351562 325.070312 76.523438 323.554688 C 76.695312 322.035156 76.957031 320.535156 77.308594 319.050781 C 77.65625 317.5625 78.09375 316.101562 78.613281 314.667969 C 79.132812 313.230469 79.738281 311.832031 80.425781 310.46875 C 81.109375 309.105469 81.875 307.785156 82.714844 306.511719 C 85.648438 302.101562 90.707031 297.9375 95.757812 299.546875 " fill-opacity="1" fill-rule="nonzero"/><path fill="#ffd02e" d="M 97.78125 299.277344 C 103.851562 302.113281 103.933594 309.695312 102.261719 315.242188 C 100.445312 321.296875 96.949219 327.058594 97.417969 333.613281 C 98.246094 345.28125 110.863281 346.5 120.015625 346.542969 C 126.277344 346.542969 133.449219 346.898438 137.808594 352.054688 L 137.808594 351.144531 C 137.207031 351.894531 136.570312 352.617188 135.90625 353.3125 C 135.238281 354.007812 134.542969 354.671875 133.820312 355.308594 C 133.097656 355.945312 132.351562 356.550781 131.574219 357.121094 C 130.800781 357.691406 130.003906 358.230469 129.183594 358.734375 C 128.363281 359.238281 127.523438 359.707031 126.660156 360.136719 C 125.800781 360.570312 124.925781 360.964844 124.03125 361.320312 C 123.136719 361.675781 122.226562 361.996094 121.308594 362.273438 C 120.386719 362.554688 119.453125 362.792969 118.511719 362.992188 C 117.570312 363.191406 116.621094 363.351562 115.667969 363.46875 C 114.710938 363.585938 113.753906 363.664062 112.792969 363.699219 C 111.832031 363.734375 110.867188 363.730469 109.90625 363.683594 C 108.945312 363.640625 107.988281 363.550781 107.035156 363.425781 C 106.082031 363.296875 105.132812 363.128906 104.195312 362.917969 C 103.253906 362.710938 102.324219 362.460938 101.40625 362.171875 C 100.488281 361.882812 99.585938 361.554688 98.695312 361.191406 C 97.804688 360.824219 96.929688 360.421875 96.074219 359.980469 C 94.339844 359.054688 92.6875 357.992188 91.125 356.792969 C 89.5625 355.597656 88.105469 354.28125 86.753906 352.847656 C 85.402344 351.414062 84.179688 349.882812 83.078125 348.25 C 81.976562 346.617188 81.011719 344.90625 80.191406 343.117188 C 79.367188 341.324219 78.691406 339.480469 78.167969 337.582031 C 77.644531 335.683594 77.277344 333.753906 77.066406 331.796875 C 76.855469 329.835938 76.804688 327.871094 76.914062 325.90625 C 77.019531 323.9375 77.285156 321.992188 77.710938 320.070312 C 78.660156 315.535156 80.378906 311.3125 82.859375 307.402344 C 85.585938 303.222656 90.125 298.695312 95.574219 300.128906 C 95.742188 300.171875 95.902344 300.152344 96.054688 300.0625 C 96.203125 299.976562 96.300781 299.851562 96.347656 299.683594 C 96.390625 299.515625 96.375 299.355469 96.289062 299.203125 C 96.203125 299.050781 96.078125 298.953125 95.910156 298.902344 C 87.390625 296.585938 81.296875 306.277344 78.589844 312.894531 C 77.726562 314.988281 77.050781 317.140625 76.554688 319.351562 C 76.0625 321.558594 75.761719 323.796875 75.652344 326.058594 C 75.542969 328.320312 75.628906 330.574219 75.90625 332.820312 C 76.183594 335.070312 76.652344 337.277344 77.308594 339.441406 C 82.25 355.207031 98.199219 366.546875 114.769531 364.898438 C 117.089844 364.679688 119.367188 364.230469 121.597656 363.554688 C 123.828125 362.878906 125.972656 361.988281 128.027344 360.882812 C 130.078125 359.777344 132.003906 358.480469 133.800781 356.992188 C 135.59375 355.503906 137.226562 353.851562 138.691406 352.035156 C 138.808594 351.90625 138.867188 351.753906 138.867188 351.582031 C 138.867188 351.40625 138.808594 351.253906 138.691406 351.125 C 131.425781 342.496094 118.582031 346.660156 108.972656 344.324219 C 102.316406 342.699219 98.074219 337.960938 98.699219 330.832031 C 99.300781 324.113281 103.40625 318.332031 104.351562 311.695312 C 105.078125 306.539062 103.441406 300.511719 98.410156 298.15625 C 97.675781 297.8125 97.027344 298.902344 97.765625 299.25 Z M 97.78125 299.277344 " fill-opacity="1" fill-rule="nonzero"/><path fill="#ffd02e" d="M 111.308594 18.75 C 113.699219 36.699219 117.9375 54.195312 124.023438 71.246094 C 124.566406 72.757812 125.210938 74.382812 126.59375 75.183594 C 128.21875 76.09375 130.226562 75.628906 132.042969 75.128906 C 141.539062 72.519531 151.164062 70.546875 160.921875 69.214844 C 170.679688 67.882812 180.480469 67.199219 190.328125 67.167969 C 200.175781 67.136719 209.980469 67.753906 219.746094 69.023438 C 229.511719 70.292969 239.152344 72.199219 248.664062 74.746094 C 252.570312 66.578125 255.746094 58.132812 258.183594 49.410156 C 260.625 40.6875 262.296875 31.820312 263.195312 22.808594 C 263.34375 21.34375 263.105469 19.371094 261.652344 19.117188 C 252.320312 29.1875 242.121094 38.277344 231.042969 46.390625 C 230.054688 47.117188 228.902344 47.882812 227.691406 47.664062 C 226.484375 47.445312 225.667969 46.335938 224.96875 45.308594 C 218.136719 34.882812 212.507812 23.84375 208.082031 12.1875 C 200.4375 18.011719 194.175781 25.0625 189.292969 33.34375 C 188.839844 34.371094 188.117188 35.144531 187.121094 35.664062 C 185.304688 36.34375 183.558594 34.671875 182.351562 33.171875 L 165.957031 12.796875 L 147.101562 50.074219 L 111.425781 20.386719 " fill-opacity="1" fill-rule="nonzero"/><path fill="#ffd02e" d="M 110.671875 18.75 C 112.3125 31.101562 114.828125 43.273438 118.21875 55.265625 C 119.855469 61.039062 121.460938 67.027344 123.8125 72.539062 C 124.457031 74.054688 125.367188 75.511719 127.019531 76.066406 C 129.410156 76.882812 132.179688 75.71875 134.476562 75.15625 C 143.785156 72.699219 153.210938 70.855469 162.753906 69.625 C 172.300781 68.394531 181.886719 67.789062 191.511719 67.804688 C 201.136719 67.820312 210.71875 68.460938 220.261719 69.726562 C 229.800781 70.988281 239.222656 72.867188 248.519531 75.355469 C 248.65625 75.390625 248.792969 75.382812 248.925781 75.328125 C 249.058594 75.273438 249.164062 75.1875 249.238281 75.066406 C 253.945312 65.199219 257.601562 54.957031 260.199219 44.335938 C 261.472656 39.0625 262.46875 33.738281 263.195312 28.363281 C 263.542969 25.808594 265.40625 19.671875 261.84375 18.507812 C 261.605469 18.441406 261.402344 18.496094 261.226562 18.671875 C 251.972656 28.644531 241.734375 38.28125 230.5 46.027344 C 229.253906 46.882812 228.175781 47.582031 226.613281 46.335938 C 226.023438 45.742188 225.53125 45.074219 225.140625 44.335938 C 224.21875 42.929688 223.3125 41.503906 222.414062 40.0625 C 220.660156 37.191406 218.992188 34.265625 217.410156 31.289062 C 214.117188 25.042969 211.214844 18.621094 208.699219 12.023438 C 208.574219 11.6875 208.128906 11.371094 207.792969 11.640625 C 200.363281 17.316406 194.207031 24.136719 189.320312 32.109375 C 189.035156 32.570312 188.78125 33.015625 188.484375 33.5 C 187.828125 34.5 187.683594 34.644531 186.367188 34.753906 C 185.859375 34.855469 185.367188 34.8125 184.886719 34.625 C 184.40625 34.4375 184.015625 34.136719 183.714844 33.714844 C 183.292969 33.300781 182.902344 32.859375 182.542969 32.390625 C 180.726562 30.207031 179.007812 28.007812 177.246094 25.816406 L 166.402344 12.386719 C 166.332031 12.320312 166.25 12.269531 166.15625 12.238281 C 166.066406 12.207031 165.96875 12.199219 165.871094 12.210938 C 165.777344 12.222656 165.6875 12.257812 165.605469 12.308594 C 165.519531 12.363281 165.453125 12.429688 165.402344 12.515625 L 146.546875 49.789062 L 147.546875 49.664062 L 111.871094 19.933594 C 111.253906 19.414062 110.34375 20.316406 110.960938 20.84375 L 146.628906 50.519531 C 146.699219 50.585938 146.78125 50.632812 146.875 50.664062 C 146.96875 50.691406 147.0625 50.703125 147.160156 50.691406 C 147.253906 50.675781 147.34375 50.644531 147.425781 50.59375 C 147.507812 50.539062 147.578125 50.472656 147.628906 50.390625 L 166.484375 13.113281 L 165.484375 13.242188 L 177.65625 28.351562 C 179.472656 30.5625 181.109375 33.214844 183.261719 35.070312 C 184.496094 36.144531 186.085938 36.890625 187.664062 36.089844 C 189.246094 35.289062 190.164062 33.035156 191.117188 31.542969 C 195.757812 24.253906 201.511719 17.980469 208.375 12.734375 L 207.464844 12.359375 C 210.871094 21.257812 214.976562 29.824219 219.773438 38.054688 C 220.949219 40.066406 222.160156 42.054688 223.40625 44.019531 C 224.3125 45.398438 225.222656 47.316406 226.8125 48.046875 C 227.394531 48.277344 227.996094 48.359375 228.621094 48.289062 C 229.246094 48.222656 229.816406 48.011719 230.335938 47.664062 C 232.269531 46.445312 234.105469 45.089844 235.839844 43.597656 C 243.417969 37.746094 250.570312 31.414062 257.300781 24.605469 C 258.210938 23.6875 259.117188 22.757812 260.027344 21.824219 C 260.71875 21.105469 261.742188 19.316406 262.523438 20.914062 C 262.933594 21.761719 262.523438 23.488281 262.445312 24.351562 C 262.28125 25.835938 262.097656 27.316406 261.890625 28.789062 C 261.210938 33.636719 260.304688 38.457031 259.164062 43.246094 C 256.597656 54.027344 252.929688 64.417969 248.15625 74.421875 L 248.875 74.128906 C 240.507812 71.890625 232.039062 70.144531 223.46875 68.890625 C 214.898438 67.640625 206.285156 66.886719 197.625 66.636719 C 188.96875 66.382812 180.324219 66.632812 171.699219 67.386719 C 163.070312 68.140625 154.511719 69.390625 146.03125 71.136719 C 143.328125 71.691406 140.640625 72.296875 137.964844 72.957031 C 136.691406 73.265625 135.421875 73.59375 134.160156 73.929688 C 132.46875 74.375 130.308594 75.347656 128.546875 75.109375 C 125.140625 74.65625 124.496094 70.8125 123.550781 68.054688 C 122.503906 65.027344 121.515625 61.949219 120.589844 58.828125 C 116.65625 45.722656 113.777344 32.386719 111.960938 18.824219 C 111.851562 18.023438 110.582031 18.015625 110.691406 18.824219 Z M 110.671875 18.75 " fill-opacity="1" fill-rule="nonzero"/><path fill="#ffffff" d="M 124.429688 25.117188 C 130.421875 40.480469 135.804688 56.054688 140.582031 71.839844 C 137.296875 74.300781 133.730469 76.230469 129.871094 77.628906 C 129.230469 77.96875 128.5625 78.042969 127.863281 77.847656 C 127.238281 77.464844 126.824219 76.921875 126.621094 76.21875 C 118.78125 57.609375 110.742188 38.273438 111.570312 18.117188 C 116.085938 20.675781 120.023438 23.9375 123.378906 27.898438 " fill-opacity="1" fill-rule="nonzero"/><path fill="#ffffff" d="M 124.277344 25.160156 C 127.667969 33.863281 130.871094 42.652344 133.886719 51.527344 C 135.351562 55.820312 136.769531 60.125 138.136719 64.445312 C 138.519531 65.628906 138.882812 66.800781 139.253906 67.984375 C 139.710938 68.996094 140.035156 70.046875 140.226562 71.136719 C 140.226562 72.875 136.738281 74.3125 135.394531 75.039062 C 133.640625 75.949219 131.515625 77.300781 129.535156 77.628906 C 126.601562 78.121094 125.484375 73.082031 124.667969 71.101562 C 122.933594 66.9375 121.234375 62.753906 119.691406 58.546875 C 116.445312 50.222656 114.085938 41.65625 112.613281 32.84375 C 112.226562 30.292969 111.957031 27.726562 111.808594 25.144531 C 111.734375 23.851562 111.6875 22.550781 111.6875 21.242188 C 111.6875 20.332031 111.296875 18.578125 112.414062 18.777344 C 113.324219 18.933594 114.613281 20.171875 115.359375 20.699219 C 116.394531 21.433594 117.402344 22.214844 118.375 23.042969 C 120.144531 24.574219 121.796875 26.230469 123.324219 28.007812 C 123.449219 28.160156 123.679688 27.933594 123.542969 27.78125 C 120.140625 23.835938 116.179688 20.566406 111.660156 17.980469 C 111.609375 17.949219 111.554688 17.949219 111.5 17.976562 C 111.445312 18.007812 111.417969 18.054688 111.417969 18.117188 C 110.917969 32.207031 114.605469 45.910156 119.507812 59.027344 C 120.761719 62.375 122.097656 65.683594 123.460938 68.972656 C 124.066406 70.445312 124.671875 71.917969 125.277344 73.382812 C 125.695312 74.742188 126.269531 76.03125 127.003906 77.246094 C 128.292969 78.9375 130.417969 77.675781 131.980469 77.011719 C 135.074219 75.679688 137.972656 74.011719 140.679688 72 C 140.742188 71.957031 140.769531 71.894531 140.753906 71.820312 C 135.945312 56.0625 130.550781 40.488281 124.566406 25.105469 C 124.496094 24.914062 124.1875 24.996094 124.257812 25.1875 Z M 124.277344 25.160156 " fill-opacity="1" fill-rule="nonzero"/><path fill="#ffffff" d="M 143.304688 47 C 146.503906 53.976562 149.503906 61.035156 152.304688 68.175781 L 149.054688 69.082031 C 148.742188 69.199219 148.425781 69.214844 148.101562 69.128906 C 147.738281 68.921875 147.496094 68.617188 147.375 68.21875 C 143.488281 59.128906 139.589844 50.035156 136.519531 40.699219 L 141.0625 44.71875 " fill-opacity="1" fill-rule="nonzero"/><path fill="#ffffff" d="M 143.167969 47.082031 C 145.332031 51.804688 147.40625 56.5625 149.390625 61.355469 C 149.917969 62.636719 152.578125 67.21875 151.453125 68.238281 C 150.800781 68.511719 150.121094 68.695312 149.417969 68.785156 C 148.933594 68.796875 148.488281 68.671875 148.082031 68.40625 C 147.671875 68.144531 147.378906 67.785156 147.191406 67.335938 C 146.632812 66.234375 146.144531 65.101562 145.730469 63.9375 C 143.695312 59.15625 141.6875 54.363281 139.84375 49.507812 C 138.96875 47.207031 138.125 44.886719 137.320312 42.554688 C 136.765625 40.917969 137.003906 41.28125 138.121094 42.273438 L 140.960938 44.78125 C 141.117188 44.917969 141.34375 44.691406 141.1875 44.554688 L 136.648438 40.535156 C 136.539062 40.445312 136.328125 40.535156 136.382812 40.691406 C 138.535156 47.199219 141.042969 53.574219 143.652344 59.890625 C 144.796875 62.621094 145.730469 65.703125 147.210938 68.246094 C 148.355469 70.210938 150.488281 68.820312 152.324219 68.320312 C 152.425781 68.292969 152.460938 68.230469 152.433594 68.128906 C 149.636719 60.984375 146.640625 53.917969 143.441406 46.9375 C 143.359375 46.753906 143.085938 46.9375 143.167969 47.101562 Z M 143.167969 47.082031 " fill-opacity="1" fill-rule="nonzero"/><path fill="#ffffff" d="M 205.976562 65.910156 C 207.1875 48.054688 208.574219 30.214844 210.136719 12.386719 C 212.789062 21.480469 220.382812 28.84375 221.125 38.234375 C 221.242188 41.097656 221.03125 43.933594 220.492188 46.746094 L 217.410156 66.9375 C 217.433594 67.09375 217.417969 67.246094 217.363281 67.394531 C 217.308594 67.542969 217.21875 67.664062 217.101562 67.769531 C 216.980469 67.871094 216.84375 67.9375 216.6875 67.964844 C 216.53125 67.996094 216.378906 67.988281 216.230469 67.9375 L 204.660156 66.609375 " fill-opacity="1" fill-rule="nonzero"/><path fill="#ffffff" d="M 206.101562 65.910156 C 207.3125 49.023438 208.628906 32.152344 210.046875 15.296875 C 210.050781 14.542969 210.097656 13.792969 210.179688 13.042969 C 210.371094 13.789062 210.632812 14.511719 210.960938 15.207031 C 211.554688 16.640625 212.234375 18.050781 212.960938 19.425781 C 214.515625 22.359375 216.265625 25.1875 217.765625 28.152344 C 219.566406 31.414062 220.640625 34.898438 220.988281 38.609375 C 221.246094 42.925781 220.246094 47.289062 219.601562 51.546875 L 217.566406 64.902344 C 217.546875 65.449219 217.464844 65.988281 217.320312 66.519531 C 216.902344 67.554688 216.414062 67.675781 215.402344 67.710938 C 214.292969 67.667969 213.191406 67.542969 212.097656 67.328125 L 204.660156 66.472656 C 204.460938 66.472656 204.460938 66.773438 204.660156 66.792969 C 208.238281 67.203125 211.816406 67.648438 215.402344 68.027344 C 217.929688 68.300781 217.59375 66.863281 217.9375 64.582031 C 218.957031 57.863281 220.101562 51.15625 220.988281 44.417969 C 221.378906 41.648438 221.335938 38.886719 220.859375 36.132812 C 220.378906 33.378906 219.492188 30.765625 218.191406 28.289062 C 215.539062 22.960938 212.050781 18.070312 210.289062 12.324219 C 210.273438 12.222656 210.214844 12.175781 210.113281 12.191406 C 210.011719 12.207031 209.964844 12.265625 209.980469 12.371094 C 208.425781 30.207031 207.027344 48.054688 205.785156 65.910156 C 205.785156 66.121094 206.085938 66.121094 206.101562 65.910156 Z M 206.101562 65.910156 " fill-opacity="1" fill-rule="nonzero"/><path fill="#ffffff" d="M 226.921875 48.445312 L 223.386719 68.601562 L 226.9375 69.511719 C 227.183594 69.589844 227.429688 69.589844 227.675781 69.511719 C 227.992188 69.375 228.109375 68.984375 228.191406 68.601562 L 233.316406 47.089844 L 234.339844 42.789062 C 231.878906 45.472656 228.90625 47.359375 225.429688 48.445312 " fill-opacity="1" fill-rule="nonzero"/><path fill="#ffffff" d="M 226.765625 48.398438 L 223.234375 68.554688 C 223.207031 68.65625 223.242188 68.71875 223.34375 68.746094 C 224.597656 69.066406 227.066406 70.445312 228.136719 69.273438 C 228.636719 68.730469 228.738281 67.039062 228.917969 66.300781 L 230.054688 61.484375 L 234.496094 42.84375 C 234.515625 42.765625 234.488281 42.707031 234.417969 42.664062 C 234.347656 42.625 234.28125 42.632812 234.222656 42.691406 C 231.761719 45.324219 228.816406 47.191406 225.386719 48.300781 C 225.195312 48.363281 225.277344 48.671875 225.476562 48.609375 C 227.417969 47.996094 229.234375 47.125 230.925781 45.992188 C 231.671875 45.476562 232.382812 44.917969 233.0625 44.316406 C 234.3125 43.191406 234.078125 43.328125 233.707031 44.910156 L 229.964844 60.601562 L 229.054688 64.582031 C 228.78125 65.710938 228.726562 67.636719 228.101562 68.574219 C 227.476562 69.511719 225.050781 69.265625 224.207031 68.574219 C 223.359375 67.882812 224.070312 65.917969 224.207031 64.9375 L 227.101562 48.410156 C 227.101562 48.207031 226.832031 48.128906 226.792969 48.328125 Z M 226.765625 48.398438 " fill-opacity="1" fill-rule="nonzero"/><path fill="#ffffff" d="M 259.335938 21.160156 C 255.035156 39.769531 249.808594 58.117188 243.660156 76.203125 C 245.296875 77.949219 248.363281 77.484375 250.117188 75.855469 C 251.871094 74.230469 252.652344 71.820312 253.324219 69.492188 C 258.128906 53.207031 261.574219 36.640625 263.660156 19.789062 L 259.300781 20.097656 " fill-opacity="1" fill-rule="nonzero"/><path fill="#ffffff" d="M 259.191406 21.117188 C 254.867188 39.71875 249.640625 58.0625 243.507812 76.15625 C 243.476562 76.207031 243.476562 76.261719 243.507812 76.3125 C 246.347656 78.894531 250.164062 76.757812 251.789062 73.894531 C 253.015625 71.730469 253.605469 69.175781 254.242188 66.808594 C 255.144531 63.660156 255.992188 60.488281 256.785156 57.300781 C 259.878906 44.949219 262.210938 32.453125 263.789062 19.816406 C 263.789062 19.707031 263.734375 19.652344 263.625 19.652344 L 259.265625 19.96875 C 259.066406 19.96875 259.066406 20.304688 259.265625 20.289062 L 261.808594 20.105469 C 263.195312 19.996094 263.242188 20.207031 263.261719 21.433594 C 263.261719 23.78125 262.589844 26.378906 262.234375 28.707031 C 261.628906 32.628906 260.953125 36.535156 260.210938 40.425781 C 258.683594 48.335938 256.851562 56.183594 254.714844 63.964844 C 253.742188 67.472656 253.0625 71.847656 250.808594 74.792969 C 249.574219 76.382812 247.140625 77.847656 245.03125 76.9375 C 243.097656 76.03125 245.09375 72.394531 245.605469 70.855469 C 248.109375 63.21875 250.460938 55.527344 252.652344 47.78125 C 255.128906 39 257.398438 30.152344 259.464844 21.242188 C 259.507812 21.050781 259.210938 20.960938 259.164062 21.160156 Z M 259.191406 21.117188 " fill-opacity="1" fill-rule="nonzero"/><path fill="#ffffff" d="M 101.308594 300.921875 C 91.46875 305.347656 85.503906 315.886719 83.648438 326.515625 C 82.105469 335.398438 83.257812 345.296875 89.21875 352.054688 C 94.585938 358.136719 103.050781 360.746094 111.152344 360.753906 C 119.253906 360.761719 127.183594 358.515625 134.976562 356.273438 C 131.699219 359.78125 126.640625 360.816406 121.914062 361.726562 L 107.691406 364.410156 C 105.03125 364.910156 102.304688 365.417969 99.625 364.972656 C 96.632812 364.324219 93.972656 363 91.652344 361 C 90.648438 360.210938 89.683594 359.375 88.761719 358.492188 C 87.835938 357.613281 86.957031 356.6875 86.121094 355.722656 C 85.285156 354.757812 84.496094 353.753906 83.757812 352.714844 C 83.015625 351.671875 82.328125 350.597656 81.6875 349.492188 C 81.050781 348.386719 80.464844 347.25 79.9375 346.089844 C 79.40625 344.925781 78.933594 343.742188 78.515625 342.53125 C 78.101562 341.324219 77.742188 340.101562 77.441406 338.859375 C 77.140625 337.617188 76.902344 336.363281 76.722656 335.097656 C 76.542969 333.832031 76.421875 332.5625 76.363281 331.285156 C 76.304688 330.011719 76.304688 328.734375 76.367188 327.457031 C 76.429688 326.179688 76.550781 324.910156 76.734375 323.648438 C 76.917969 322.382812 77.164062 321.128906 77.464844 319.886719 C 77.769531 318.648438 78.128906 317.421875 78.550781 316.214844 C 78.96875 315.011719 79.445312 313.824219 79.976562 312.664062 C 80.511719 311.503906 81.097656 310.371094 81.738281 309.265625 C 82.378906 308.160156 83.070312 307.089844 83.8125 306.050781 C 84.730469 304.585938 85.941406 303.429688 87.445312 302.585938 C 88.90625 302.015625 90.421875 301.75 91.988281 301.792969 L 101.214844 301.503906 " fill-opacity="1" fill-rule="nonzero"/><path fill="#ffffff" d="M 101.226562 300.785156 C 89.417969 306.304688 83.234375 319.878906 82.886719 332.46875 C 82.707031 339.035156 84.160156 345.890625 88.265625 351.152344 C 92.371094 356.417969 98.917969 359.453125 105.519531 360.480469 C 113.332031 361.691406 121.214844 360.179688 128.765625 358.179688 L 131.90625 357.316406 C 132.453125 357.164062 133.894531 356.40625 134.414062 356.625 C 134.203125 356.535156 132.597656 358.042969 132.144531 358.34375 C 131.128906 358.945312 130.066406 359.445312 128.953125 359.835938 C 125.320312 361.164062 121.351562 361.652344 117.539062 362.410156 C 112.996094 363.273438 108.320312 364.472656 103.675781 364.910156 C 98.871094 365.363281 94.894531 363.464844 91.253906 360.492188 C 88.285156 358.058594 85.710938 355.257812 83.539062 352.089844 C 81.367188 348.925781 79.675781 345.519531 78.472656 341.871094 C 77.789062 339.777344 77.277344 337.640625 76.945312 335.460938 C 76.613281 333.28125 76.460938 331.089844 76.492188 328.886719 C 76.519531 326.683594 76.730469 324.496094 77.121094 322.328125 C 77.511719 320.15625 78.078125 318.035156 78.816406 315.960938 C 80.253906 311.914062 82.386719 307.242188 85.511719 304.203125 C 87.710938 302.066406 90.363281 302.03125 93.242188 301.929688 L 101.1875 301.640625 C 101.390625 301.640625 101.390625 301.3125 101.1875 301.320312 L 93.660156 301.59375 C 91.589844 301.667969 89.300781 301.550781 87.375 302.457031 C 84.277344 303.921875 82.242188 307.839844 80.742188 310.730469 C 79.808594 312.515625 79.007812 314.359375 78.347656 316.261719 C 77.691406 318.164062 77.175781 320.105469 76.808594 322.085938 C 76.4375 324.066406 76.21875 326.066406 76.152344 328.078125 C 76.082031 330.09375 76.164062 332.097656 76.398438 334.101562 C 76.632812 336.101562 77.011719 338.074219 77.542969 340.019531 C 78.070312 341.960938 78.742188 343.855469 79.554688 345.699219 C 80.367188 347.542969 81.3125 349.3125 82.394531 351.011719 C 83.472656 352.714844 84.671875 354.324219 85.992188 355.84375 C 88.539062 358.929688 91.542969 361.480469 95.003906 363.492188 C 98.835938 365.589844 102.707031 365.492188 106.910156 364.734375 C 112.359375 363.753906 117.808594 362.726562 123.261719 361.644531 C 127.582031 360.789062 131.914062 359.609375 135.066406 356.390625 C 135.125 356.332031 135.132812 356.265625 135.089844 356.195312 C 135.050781 356.125 134.992188 356.097656 134.914062 356.117188 C 121.117188 360.089844 103.921875 364.535156 91.652344 354.21875 C 80.890625 345.144531 81.542969 328.214844 86.910156 316.414062 C 89.898438 309.824219 94.765625 304.140625 101.390625 301.058594 C 101.570312 300.976562 101.390625 300.703125 101.226562 300.785156 Z M 101.226562 300.785156 " fill-opacity="1" fill-rule="nonzero"/><path fill="#26100c" d="M 186.148438 139.90625 C 186.285156 139.554688 185.757812 139.390625 185.566406 139.679688 L 183.75 138.769531 C 183.820312 138.671875 183.824219 138.566406 183.761719 138.460938 C 183.699219 138.355469 183.609375 138.304688 183.488281 138.316406 C 163.957031 139.945312 144.636719 142.921875 125.523438 147.246094 C 117.574219 149.0625 109.171875 150.882812 102.597656 156.035156 C 97.238281 160.273438 93.867188 166.410156 91.488281 172.703125 C 87.046875 184.421875 83.914062 196.722656 83.242188 209.167969 C 83.242188 209.742188 83.179688 210.3125 83.160156 210.894531 C 82.980469 215.617188 83.195312 220.320312 83.796875 225.007812 C 84.964844 234.238281 86.671875 243.367188 88.917969 252.398438 C 90.816406 259.863281 93.015625 267.492188 97.148438 274.066406 C 100.515625 279.4375 105.210938 283.746094 111.378906 285.527344 C 114.832031 286.519531 118.464844 286.792969 121.859375 287.949219 C 123.914062 288.648438 127.3125 292.039062 129.644531 291.085938 C 131.316406 290.402344 131.808594 287.746094 132.277344 286.273438 C 133.140625 283.554688 134.015625 280.839844 134.914062 278.136719 C 136.839844 272.300781 138.820312 266.480469 140.851562 260.683594 C 149.691406 235.316406 159.109375 210.140625 168.683594 185.03125 C 174.433594 169.945312 180.257812 154.902344 186.148438 139.90625 Z M 186.148438 139.90625 " fill-opacity="1" fill-rule="nonzero"/><path fill="#26100c" d="M 248.664062 148.316406 C 248.6875 148.234375 248.679688 148.152344 248.636719 148.078125 C 248.59375 148 248.53125 147.949219 248.445312 147.925781 L 230.980469 143.253906 C 230.929688 143.238281 230.878906 143.238281 230.828125 143.25 C 230.777344 143.261719 230.730469 143.285156 230.691406 143.320312 C 230.652344 143.355469 230.621094 143.394531 230.605469 143.445312 C 230.585938 143.496094 230.582031 143.546875 230.589844 143.597656 L 225.605469 144.253906 C 225.550781 144.101562 225.445312 144.027344 225.285156 144.027344 C 225.125 144.027344 225.019531 144.101562 224.96875 144.253906 C 209.945312 185.839844 194.859375 227.40625 179.273438 268.808594 C 175.820312 277.964844 172.46875 287.191406 168.601562 296.183594 C 168.519531 296.367188 168.601562 296.695312 168.875 296.65625 C 175.78125 295.699219 182.710938 295.492188 189.664062 296.039062 C 193.789062 296.375 196.730469 297.304688 198.5 293.113281 C 199.738281 290.191406 200.691406 287.128906 201.753906 284.148438 C 205.785156 272.820312 209.71875 261.417969 213.660156 250.082031 C 223.148438 222.714844 232.585938 195.324219 241.972656 167.910156 C 244.210938 161.351562 246.441406 154.820312 248.664062 148.316406 Z M 248.664062 148.316406 " fill-opacity="1" fill-rule="nonzero"/><path fill="#26100c" d="M 290.371094 190.847656 C 287.785156 177.65625 282.726562 164.792969 272.371094 155.789062 C 272.292969 155.730469 272.207031 155.707031 272.109375 155.722656 C 272.011719 155.738281 271.933594 155.789062 271.878906 155.871094 L 266.53125 153.007812 L 266.53125 152.945312 C 266.65625 152.554688 266.050781 152.390625 265.914062 152.773438 C 253.800781 187.988281 241.542969 223.140625 229.128906 258.234375 C 224.828125 270.359375 220.496094 282.480469 216.128906 294.601562 C 216.101562 294.703125 216.117188 294.796875 216.179688 294.878906 C 216.242188 294.964844 216.324219 295.003906 216.429688 295.003906 C 239.710938 293.285156 266.703125 290.511719 281.636719 270.101562 C 289.527344 259.316406 292.726562 245.863281 293.441406 232.699219 C 294.125 218.621094 293.101562 204.671875 290.371094 190.847656 Z M 290.371094 190.847656 " fill-opacity="1" fill-rule="nonzero"/><path fill="#26100c" d="M 289.410156 172.972656 C 287.59375 167.671875 285.59375 162.199219 281.925781 157.871094 C 274.503906 149.136719 260.707031 146.054688 250.136719 143.324219 C 228.738281 137.980469 206.03125 135.769531 184.003906 135.632812 C 160.152344 137.226562 135.867188 139.152344 113.097656 146.789062 C 103.105469 150.125 93.886719 154.234375 89.128906 164.238281 C 84.367188 174.238281 81.542969 185.566406 79.890625 196.476562 C 76.574219 218.097656 77.753906 241.132812 84.96875 261.9375 C 88.15625 271.117188 92.933594 279.972656 100.796875 285.957031 C 109.328125 292.449219 120.125 294.722656 130.433594 296.667969 C 149.691406 300.304688 169.046875 301.496094 188.566406 301.496094 C 209.027344 301.496094 229.355469 299.902344 249.417969 295.722656 C 259.335938 293.648438 269.402344 290.695312 277.003906 283.664062 C 284.269531 276.957031 288.511719 267.480469 291.300781 258.144531 C 294.414062 247.402344 296.234375 236.445312 296.757812 225.269531 C 297.277344 214.097656 296.488281 203.015625 294.386719 192.03125 C 293.1875 185.558594 291.527344 179.207031 289.410156 172.972656 Z M 287.59375 240.253906 C 285.996094 249.933594 283.652344 260.046875 278.910156 268.71875 C 274.25 277.246094 267.25 282.703125 258.019531 285.675781 C 237.949219 292.167969 215.386719 293.800781 194.441406 293.855469 C 180.960938 293.902344 167.519531 293.855469 154.085938 292.449219 C 143.363281 291.433594 132.769531 289.664062 122.296875 287.148438 C 112.613281 284.738281 103.824219 280.648438 98.164062 272.074219 C 93.058594 264.335938 90.480469 255.171875 88.582031 246.191406 C 87.429688 240.664062 86.628906 235.089844 86.175781 229.464844 C 85.726562 223.839844 85.625 218.207031 85.878906 212.570312 C 86.136719 206.929688 86.742188 201.332031 87.695312 195.769531 C 88.652344 190.207031 89.953125 184.726562 91.597656 179.328125 C 93.113281 174.355469 94.695312 169.019531 97.574219 164.636719 C 100.917969 159.535156 106.585938 157.191406 112.105469 155.210938 C 135.132812 146.945312 159.726562 144.898438 183.96875 143.308594 C 200.894531 143.421875 217.695312 144.9375 234.367188 147.855469 C 245.101562 149.617188 255.554688 152.421875 265.730469 156.261719 C 270.046875 157.953125 274.25 160.136719 277.019531 163.972656 C 279.964844 168.066406 281.507812 173.15625 283.023438 177.910156 C 286.222656 187.972656 288.210938 198.269531 288.984375 208.796875 C 289.761719 219.328125 289.304688 229.804688 287.613281 240.226562 Z M 287.59375 240.253906 " fill-opacity="1" fill-rule="nonzero"/><g clip-path="url(#56793dc7b7)"><path fill="#26100c" d="M 362.28125 207.050781 C 359.636719 200.285156 353.199219 197.957031 346.695312 196.929688 C 346.898438 192.316406 346.542969 187.746094 345.621094 183.21875 C 342.734375 170.992188 328.058594 167.4375 316.867188 167.472656 C 314.832031 154.855469 311.335938 142.625 305.285156 131.488281 C 298.828125 119.480469 289.847656 108.160156 277.300781 102.140625 C 264.113281 95.777344 248.828125 92.929688 234.542969 90.195312 C 208.890625 85.285156 183.007812 84.085938 157.09375 87.519531 C 141.742188 89.5625 126.625 92.71875 111.742188 96.996094 C 97.945312 100.957031 86.664062 107.515625 77.855469 119.023438 C 66.792969 133.480469 61.289062 150.125 58.535156 167.472656 C 47.300781 167.375 32.359375 170.863281 29.472656 183.21875 C 28.539062 187.75 28.175781 192.328125 28.371094 196.949219 C 22.015625 197.96875 15.800781 200.121094 13.03125 206.496094 C 11.289062 210.523438 11.507812 214.949219 11.824219 219.222656 C 12.207031 224.324219 12.8125 229.40625 13.640625 234.460938 C 14.453125 239.699219 15.488281 244.898438 16.746094 250.0625 C 17.601562 253.542969 18.5625 257.335938 21.171875 259.964844 C 24.113281 262.9375 30.316406 264.390625 35.195312 263.21875 C 35.785156 265.636719 36.429688 268.027344 37.148438 270.390625 C 38.65625 275.355469 41.105469 280.445312 45.757812 283.164062 C 51.386719 286.464844 57.566406 284.265625 63.53125 285.394531 C 64.402344 289.429688 65.359375 293.445312 66.394531 297.4375 C 67.867188 303.402344 70.0625 309.085938 72.96875 314.496094 C 71.96875 317.578125 71.316406 320.734375 71.007812 323.960938 C 69.734375 336.414062 73.097656 349.796875 81.542969 359.253906 C 89.71875 368.398438 101.035156 371.726562 112.976562 370.273438 C 124.921875 368.816406 138.328125 364.554688 143.730469 353 C 155.667969 354.671875 167.664062 355.445312 179.71875 355.328125 C 201.699219 355.253906 223.316406 355.328125 244.894531 350.308594 C 267.847656 344.960938 292.796875 334.015625 303.632812 311.605469 C 307.574219 303.421875 309.917969 294.410156 311.671875 285.320312 C 317.59375 284.238281 323.722656 286.394531 329.328125 283.109375 C 333.980469 280.382812 336.429688 275.300781 337.949219 270.335938 C 338.664062 267.972656 339.308594 265.5625 339.902344 263.136719 C 344.632812 264.308594 350.609375 263.074219 353.523438 260.308594 C 356.441406 257.546875 357.429688 253.691406 358.339844 250.007812 C 359.597656 244.855469 360.628906 239.65625 361.4375 234.40625 C 362.21875 229.351562 362.824219 224.269531 363.207031 219.167969 C 363.550781 215.132812 363.789062 210.914062 362.28125 207.050781 Z M 27.046875 255.042969 C 25.011719 253.636719 24.613281 250.226562 24.066406 248.015625 C 22.496094 241.648438 21.285156 235.210938 20.433594 228.707031 C 19.726562 223.25 18.136719 216.257812 19.527344 210.878906 C 20.652344 206.621094 24.566406 205.195312 28.527344 204.511719 C 28.636719 212.003906 29.050781 219.484375 29.773438 226.953125 C 30.679688 236.40625 31.734375 246.164062 33.566406 255.671875 C 31.324219 256.191406 29.152344 255.980469 27.046875 255.042969 Z M 50.945312 277.175781 C 46.402344 275.59375 44.902344 270.210938 43.832031 266.019531 C 43.03125 262.878906 42.304688 259.71875 41.652344 256.535156 C 41.632812 256.316406 41.589844 256.101562 41.523438 255.890625 C 39.730469 246.84375 38.394531 237.730469 37.519531 228.550781 C 36.296875 216.242188 35.878906 203.902344 36.257812 191.539062 C 36.4375 185.828125 37.101562 181.074219 42.613281 178.328125 C 47.339844 176.144531 52.304688 175.078125 57.511719 175.128906 C 56.421875 184.667969 56.03125 194.347656 55.894531 203.929688 C 55.425781 228.757812 57.445312 253.382812 61.953125 277.800781 C 58.191406 277.765625 54.347656 278.375 50.90625 277.175781 Z M 110.316406 362.953125 C 108.996094 363.089844 107.675781 363.128906 106.347656 363.070312 C 105.023438 363.011719 103.707031 362.859375 102.40625 362.613281 C 101.101562 362.367188 99.820312 362.027344 98.566406 361.59375 C 97.3125 361.164062 96.09375 360.644531 94.914062 360.035156 C 93.734375 359.425781 92.605469 358.738281 91.527344 357.964844 C 90.445312 357.195312 89.425781 356.347656 88.46875 355.429688 C 87.511719 354.511719 86.621094 353.527344 85.804688 352.480469 C 84.988281 351.433594 84.253906 350.332031 83.597656 349.179688 C 82.152344 346.636719 80.996094 343.964844 80.125 341.171875 C 79.253906 338.378906 78.683594 335.527344 78.421875 332.613281 C 78.160156 329.699219 78.207031 326.789062 78.5625 323.886719 C 78.921875 320.984375 79.582031 318.148438 80.542969 315.386719 C 80.613281 315.25 80.671875 315.105469 80.714844 314.960938 C 82.53125 310.230469 85.867188 305.867188 90.378906 303.441406 C 93.25 301.902344 96.546875 300.976562 99.464844 302.96875 C 101.535156 304.414062 103.097656 306.941406 102.742188 309.429688 C 94.566406 316.394531 92.578125 329.660156 96.15625 339.496094 C 96.375 340.121094 96.628906 340.730469 96.917969 341.328125 C 97.203125 341.925781 97.523438 342.5 97.875 343.0625 C 98.230469 343.621094 98.613281 344.160156 99.027344 344.675781 C 99.4375 345.191406 99.878906 345.683594 100.347656 346.148438 C 100.820312 346.617188 101.3125 347.054688 101.832031 347.464844 C 102.347656 347.875 102.890625 348.253906 103.449219 348.605469 C 104.011719 348.953125 104.589844 349.269531 105.1875 349.554688 C 105.785156 349.839844 106.394531 350.089844 107.019531 350.304688 C 107.648438 350.519531 108.28125 350.695312 108.925781 350.839844 C 109.574219 350.980469 110.222656 351.089844 110.882812 351.15625 C 111.539062 351.226562 112.199219 351.257812 112.859375 351.253906 C 113.519531 351.25 114.179688 351.207031 114.835938 351.125 C 115.492188 351.046875 116.140625 350.929688 116.785156 350.777344 C 117.425781 350.621094 118.058594 350.433594 118.679688 350.207031 C 119.304688 349.984375 119.910156 349.722656 120.503906 349.429688 C 121.09375 349.136719 121.667969 348.8125 122.222656 348.453125 L 122.304688 348.398438 C 126.847656 349.726562 131.390625 350.816406 136.066406 351.71875 C 131.1875 359.753906 118.664062 362.226562 110.28125 362.953125 Z M 302.78125 289.59375 C 299.953125 302.140625 295.75 313.511719 286.195312 322.476562 C 277.800781 330.371094 267.121094 335.605469 256.304688 339.242188 C 234.503906 346.578125 211.988281 347.753906 189.171875 347.753906 C 166.046875 347.753906 143.324219 347.015625 121.054688 339.980469 C 114.511719 337.9375 108.230469 335.28125 102.207031 332.015625 C 101.578125 325.894531 102.960938 318.421875 107.875 314.921875 C 108.730469 314.210938 109.378906 313.34375 109.816406 312.324219 C 111.535156 307.222656 109.28125 301.820312 105.519531 298.230469 C 100.980469 293.875 95.03125 293.238281 89.300781 295.566406 C 86.796875 296.601562 84.503906 297.984375 82.421875 299.714844 C 80.339844 301.449219 78.5625 303.453125 77.09375 305.730469 C 72.632812 295.410156 70.863281 283.71875 68.917969 272.835938 C 66.339844 258.125 64.671875 243.3125 63.914062 228.398438 C 63.167969 213.707031 63.292969 199.023438 64.285156 184.347656 C 65.265625 169.972656 67.273438 155.398438 73.050781 142.082031 C 78.265625 130.0625 86.246094 117.585938 97.738281 110.769531 C 109.546875 103.769531 124.476562 101.25 137.703125 98.496094 C 161.316406 93.605469 185.332031 91.765625 209.335938 94.132812 C 224.160156 95.707031 238.785156 98.386719 253.207031 102.167969 C 266.929688 105.648438 279.5 109.785156 289 120.871094 C 308.175781 143.234375 310.945312 173.191406 311.542969 201.441406 C 312.195312 231.179688 309.273438 260.566406 302.78125 289.59375 Z M 331.417969 265.445312 C 330.355469 269.765625 328.902344 275.566406 324.152344 277.175781 C 320.664062 278.355469 316.8125 277.738281 313.035156 277.765625 C 313.5625 274.609375 314.042969 271.484375 314.523438 268.410156 C 317.023438 252.71875 318.539062 236.933594 319.066406 221.050781 C 319.527344 206.175781 319.699219 190.457031 317.9375 175.109375 C 323.019531 175.109375 327.863281 176.183594 332.472656 178.328125 C 337.75 180.949219 338.621094 185.238281 338.828125 190.738281 C 339.285156 203.371094 338.875 215.976562 337.59375 228.550781 C 336.402344 240.996094 334.34375 253.292969 331.417969 265.445312 Z M 354.667969 228.707031 C 353.824219 235.210938 352.613281 241.648438 351.035156 248.015625 C 350.519531 250.117188 350.128906 252.953125 348.53125 254.535156 C 347.667969 255.382812 343.652344 256.410156 341.542969 255.707031 C 343.359375 246.179688 344.460938 236.414062 345.339844 226.953125 C 346.039062 219.492188 346.441406 212.015625 346.550781 204.523438 C 350.5 205.203125 354.441406 206.632812 355.550781 210.886719 C 356.957031 216.296875 355.378906 223.261719 354.667969 228.707031 Z M 354.667969 228.707031 " fill-opacity="1" fill-rule="nonzero"/></g><path fill="#26100c" d="M 127.210938 83.558594 C 138.460938 78.101562 150.285156 74.601562 162.6875 73.054688 C 170.953125 72.054688 179.238281 72.320312 187.539062 72.320312 C 195.585938 72.320312 203.613281 72.054688 211.632812 72.976562 C 224.304688 74.460938 236.378906 77.988281 247.855469 83.558594 C 249.574219 84.382812 252.144531 84.175781 253.0625 82.195312 C 257.949219 71.707031 261.769531 60.84375 264.523438 49.605469 C 267.273438 38.367188 268.902344 26.964844 269.410156 15.40625 C 269.527344 12.679688 266.894531 11.40625 264.597656 11.769531 C 256.839844 12.859375 250.699219 21.125 245.332031 26.214844 L 228.527344 42.164062 C 225.34375 34.972656 222.148438 27.777344 218.945312 20.570312 C 216.621094 15.34375 213.714844 3.679688 205.613281 7.839844 C 202.605469 9.371094 200.164062 12.503906 198.039062 15.023438 C 195.5625 17.917969 193.3125 20.980469 191.289062 24.207031 C 189.9375 26.390625 188.691406 28.644531 187.4375 30.898438 C 184.628906 25.160156 181.160156 19.851562 177.03125 14.980469 C 173.90625 11.34375 168.9375 4.8125 163.40625 7.707031 C 160.871094 8.996094 159.945312 12.078125 158.863281 14.46875 L 154.097656 25.226562 C 151.578125 30.878906 149.0625 36.539062 146.558594 42.199219 L 129.753906 26.253906 C 124.394531 21.171875 118.28125 12.898438 110.507812 11.769531 C 108.210938 11.441406 105.574219 12.679688 105.695312 15.40625 C 106.199219 26.964844 107.832031 38.367188 110.582031 49.605469 C 113.332031 60.84375 117.152344 71.707031 122.042969 82.195312 C 122.914062 84.210938 125.503906 84.382812 127.210938 83.558594 Z M 126.730469 33.851562 L 145.121094 51.308594 C 146.730469 52.828125 150.0625 52.863281 151.097656 50.535156 C 155.871094 39.785156 160.644531 29.027344 165.421875 18.269531 C 165.839844 17.316406 166.257812 15.359375 167.003906 14.742188 C 167.355469 13.96875 167.3125 14.140625 166.875 15.261719 L 167.875 16.242188 C 168.980469 18.0625 171.164062 19.734375 172.542969 21.433594 C 175.703125 25.410156 178.398438 29.683594 180.625 34.253906 C 180.699219 34.445312 180.792969 34.632812 180.898438 34.808594 C 181.007812 35.023438 181.132812 35.230469 181.269531 35.425781 L 184.25 40.355469 C 184.421875 40.636719 184.628906 40.890625 184.863281 41.117188 C 185.101562 41.347656 185.363281 41.542969 185.652344 41.703125 C 185.941406 41.863281 186.242188 41.984375 186.5625 42.070312 C 186.878906 42.152344 187.203125 42.195312 187.535156 42.195312 C 187.863281 42.195312 188.1875 42.152344 188.507812 42.070312 C 188.824219 41.984375 189.128906 41.863281 189.414062 41.703125 C 189.703125 41.542969 189.964844 41.347656 190.203125 41.117188 C 190.441406 40.890625 190.644531 40.636719 190.816406 40.355469 C 195.660156 32.351562 199.683594 24.078125 206.257812 17.242188 C 206.960938 16.457031 207.589844 15.617188 208.148438 14.722656 C 208.691406 15.832031 209.863281 18.679688 210.027344 19.042969 C 211.511719 22.371094 212.988281 25.703125 214.460938 29.042969 L 223.976562 50.574219 C 225.011719 52.898438 228.335938 52.863281 229.945312 51.34375 L 248.339844 33.890625 L 257.238281 25.441406 C 258.609375 24.132812 259.964844 22.714844 261.398438 21.5625 C 260.664062 30.828125 259.164062 39.964844 256.898438 48.980469 C 254.632812 57.992188 251.632812 66.753906 247.902344 75.265625 C 237.34375 70.546875 226.339844 67.394531 214.886719 65.800781 C 205.804688 64.554688 196.722656 64.738281 187.539062 64.738281 C 178.546875 64.738281 169.628906 64.546875 160.679688 65.738281 C 149.054688 67.304688 137.886719 70.480469 127.175781 75.265625 C 123.441406 66.753906 120.441406 57.992188 118.175781 48.980469 C 115.90625 39.964844 114.40625 30.828125 113.667969 21.5625 C 115.132812 22.726562 116.457031 24.132812 117.828125 25.441406 Z M 126.730469 33.851562 " fill-opacity="1" fill-rule="nonzero"/><path fill="#26100c" d="M 251.671875 300.367188 C 250.863281 300.238281 250.089844 300.351562 249.355469 300.710938 C 242.027344 304.132812 237.203125 312.632812 240.15625 320.585938 C 243.378906 329.277344 252.269531 331.796875 260.453125 328.660156 C 268.636719 325.523438 270.519531 317.167969 267.949219 309.304688 C 265.996094 303.320312 258.121094 299.257812 251.671875 300.367188 Z M 256.058594 322.105469 C 251.925781 323.167969 247.820312 321.441406 246.976562 316.90625 C 246.367188 313.675781 248.054688 310.914062 250.445312 309.003906 C 250.8125 308.890625 251.160156 308.726562 251.480469 308.511719 C 253.023438 307.484375 255.59375 308.160156 257.273438 308.6875 C 259.664062 309.449219 260.535156 310.503906 261.0625 312.984375 C 262.070312 317.675781 260.9375 320.851562 256.058594 322.105469 Z M 256.058594 322.105469 " fill-opacity="1" fill-rule="nonzero"/></svg>